<?xml version="1.0" encoding="UTF-8" standalone="no"?>
<!DOCTYPE svg PUBLIC "-//W3C//DTD SVG 1.1//EN" "http://www.w3.org/Graphics/SVG/1.1/DTD/svg11.dtd">
<svg width="100%" height="100%" viewBox="0 0 763 206" version="1.1" xmlns="http://www.w3.org/2000/svg" xmlns:xlink="http://www.w3.org/1999/xlink" xml:space="preserve" xmlns:serif="http://www.serif.com/" style="fill-rule:evenodd;clip-rule:evenodd;stroke-linejoin:round;stroke-miterlimit:2;">
    <g transform="matrix(1,0,0,1,-158.217,-174.118)">
			<g id="Logo-M-dark-blue-and-green" serif:id="Logo M dark blue and green" transform="matrix(1,0,0,1,-408.61,0.362926)">
				<g transform="matrix(1,0,0,1,-991.532,-71.5138)">
						<path d="M2239.46,447.133C2231.72,448.493 2223.57,449.173 2215,449.173L2144.73,449.173L2144.73,248.149L2215,248.149C2236.12,248.149 2254.7,252.277 2270.73,260.533C2286.76,268.789 2299.14,280.549 2307.88,295.813C2316.62,311.077 2320.98,328.789 2320.98,348.949C2320.98,369.109 2316.62,386.725 2307.88,401.797C2300.87,413.893 2291.51,423.793 2279.8,431.5L2279.8,349.585C2279.8,349.376 2279.8,349.163 2279.8,348.949C2279.8,328.021 2274.04,311.653 2262.52,299.845C2251,288.037 2234.68,282.133 2213.56,282.133L2185.05,282.133L2185.05,414.901L2213.56,414.901C2223.19,414.901 2231.82,413.704 2239.46,411.308L2239.46,447.133Z" style="fill:rgb(27,153,139);fill-rule:nonzero;"/>
				</g>
				<path d="M1047.21,379.675C1033.19,379.675 1020.57,377.275 1009.34,372.475C998.107,367.675 989.227,360.763 982.699,351.739C976.171,342.715 972.811,332.059 972.619,319.771L1015.82,319.771C1016.39,328.027 1019.32,334.555 1024.6,339.355C1029.88,344.155 1037.13,346.555 1046.35,346.555C1055.76,346.555 1063.15,344.299 1068.52,339.787C1073.9,335.275 1076.59,329.371 1076.59,322.075C1076.59,316.123 1074.76,311.227 1071.12,307.387C1067.47,303.547 1062.91,300.523 1057.43,298.315C1051.96,296.107 1044.43,293.659 1034.83,290.971C1021.77,287.131 1011.16,283.339 1003,279.595C994.843,275.851 987.835,270.187 981.979,262.603C976.123,255.019 973.195,244.891 973.195,232.219C973.195,220.315 976.171,209.947 982.123,201.115C988.075,192.283 996.427,185.515 1007.18,180.811C1017.93,176.107 1030.22,173.755 1044.04,173.755C1064.78,173.755 1081.63,178.795 1094.59,188.875C1107.55,198.955 1114.7,213.019 1116.04,231.067L1071.69,231.067C1071.31,224.155 1068.38,218.443 1062.91,213.931C1057.43,209.419 1050.19,207.163 1041.16,207.163C1033.29,207.163 1027,209.179 1022.3,213.211C1017.6,217.243 1015.24,223.099 1015.24,230.779C1015.24,236.155 1017.02,240.619 1020.57,244.171C1024.12,247.723 1028.54,250.603 1033.82,252.811C1039.1,255.019 1046.54,257.563 1056.14,260.443C1069.19,264.283 1079.85,268.123 1088.11,271.963C1096.36,275.803 1103.47,281.563 1109.42,289.243C1115.37,296.923 1118.35,307.003 1118.35,319.483C1118.35,330.235 1115.56,340.219 1110,349.435C1104.43,358.651 1096.27,365.995 1085.52,371.467C1074.76,376.939 1062,379.675 1047.21,379.675Z" style="fill:rgb(45,48,71);fill-rule:nonzero;"/>
				<path d="M949.291,238.843C949.291,249.595 946.747,259.675 941.659,269.083C936.571,278.491 928.603,286.075 917.755,291.835C906.907,297.595 893.227,300.475 876.715,300.475L843.019,300.475L843.019,377.659L802.699,377.659L802.699,176.635L876.715,176.635C892.267,176.635 905.515,179.323 916.459,184.699C927.403,190.075 935.611,197.467 941.083,206.875C946.555,216.283 949.291,226.939 949.291,238.843ZM874.987,267.931C886.123,267.931 894.379,265.387 899.755,260.299C905.131,255.211 907.819,248.059 907.819,238.843C907.819,219.259 896.875,209.467 874.987,209.467L843.019,209.467L843.019,267.931L874.987,267.931Z" style="fill:rgb(45,48,71);fill-rule:nonzero;"/>
				<g transform="matrix(1,0,0,1,-991.532,-71.5138)">
						<path d="M1722.81,264.484C1734.12,272.599 1743.38,282.85 1750.6,295.237C1759.72,310.885 1764.28,328.501 1764.28,348.085C1764.28,367.861 1759.72,385.573 1750.6,401.221C1741.48,416.869 1729.05,429.109 1713.3,437.941C1697.56,446.773 1680.28,451.189 1661.46,451.189C1642.65,451.189 1625.37,446.773 1609.62,437.941C1593.88,429.109 1581.4,416.869 1572.18,401.221C1562.97,385.573 1558.36,367.861 1558.36,348.085C1558.36,328.501 1562.97,310.885 1572.18,295.237C1581.4,279.589 1593.88,267.349 1609.62,258.517C1625.37,249.685 1642.65,245.269 1661.46,245.269C1668.71,245.269 1675.71,245.911 1682.47,247.194L1682.47,284.711C1676.03,282.609 1669.03,281.557 1661.46,281.557C1649.37,281.557 1638.66,284.245 1629.35,289.621C1620.04,294.997 1612.79,302.725 1607.61,312.805C1602.42,322.885 1599.83,334.645 1599.83,348.085C1599.83,361.525 1602.42,373.333 1607.61,383.509C1612.79,393.685 1620.04,401.509 1629.35,406.981C1638.66,412.453 1649.37,415.189 1661.46,415.189C1673.56,415.189 1684.22,412.453 1693.43,406.981C1702.65,401.509 1709.85,393.685 1715.03,383.509C1720.13,373.508 1722.72,361.931 1722.81,348.777L1722.81,348.777L1722.81,348.418C1722.81,348.308 1722.81,348.197 1722.81,348.085C1722.81,347.974 1722.81,347.862 1722.81,347.752L1722.81,264.484Z" style="fill:rgb(45,48,71);fill-rule:nonzero;"/>
				</g>
			</g>
    </g>
</svg>
