<?xml version="1.0" encoding="UTF-8" standalone="no"?>
<!DOCTYPE svg PUBLIC "-//W3C//DTD SVG 1.1//EN" "http://www.w3.org/Graphics/SVG/1.1/DTD/svg11.dtd">
<svg width="100%" height="100%" viewBox="0 0 2367 600" version="1.1" xmlns="http://www.w3.org/2000/svg" xmlns:xlink="http://www.w3.org/1999/xlink" xml:space="preserve" xmlns:serif="http://www.serif.com/" style="fill-rule:evenodd;clip-rule:evenodd;stroke-linejoin:round;stroke-miterlimit:2;">
    <g transform="matrix(1,0,0,1,-316.211,-2850.54)">
        <g id="OPSd" transform="matrix(1,0,0,1,-2440.75,-1475)">
            <g transform="matrix(0.408344,0,0,0.328855,3344.98,3807.96)">
                <path d="M845.838,2089.19C907.466,2089.19 959.972,2095.07 1003.36,2106.83C1046.74,2118.59 1082.01,2137.24 1109.18,2162.78C1136.34,2188.32 1156.01,2221.37 1168.17,2261.91C1180.33,2302.45 1186.41,2351.92 1186.41,2410.3L1186.41,2619.51C1186.41,2677.9 1180.33,2727.57 1168.17,2768.52C1156.01,2809.47 1136.34,2842.71 1109.18,2868.26C1082.01,2893.8 1046.74,2912.25 1003.36,2923.6C959.972,2934.95 907.466,2940.63 845.838,2940.63L469.989,2940.63C408.361,2940.63 356.058,2934.95 313.081,2923.6C270.103,2912.25 235.032,2893.8 207.867,2868.26C180.702,2842.71 160.835,2809.47 148.266,2768.52C135.698,2727.57 129.413,2677.9 129.413,2619.51L129.413,2410.3C129.413,2351.92 135.698,2302.45 148.266,2261.91C160.835,2221.37 180.702,2188.32 207.867,2162.78C235.032,2137.24 270.103,2118.59 313.081,2106.83C356.058,2095.07 408.361,2089.19 469.989,2089.19L845.838,2089.19ZM315.513,2606.14C315.513,2637.76 318.149,2664.32 323.42,2685.81C328.69,2707.29 337.408,2724.32 349.571,2736.89C361.734,2749.46 378.155,2758.38 398.833,2763.65C419.511,2768.92 445.662,2771.56 477.287,2771.56L838.54,2771.56C870.165,2771.56 896.317,2768.92 916.994,2763.65C937.672,2758.38 954.093,2749.46 966.256,2736.89C978.42,2724.32 987.137,2707.29 992.408,2685.81C997.678,2664.32 1000.31,2637.76 1000.31,2606.14L1000.31,2423.68C1000.31,2392.06 997.678,2365.5 992.408,2344.01C987.137,2322.53 978.42,2305.5 966.256,2292.93C954.093,2280.36 937.672,2271.44 916.994,2266.17C896.317,2260.9 870.165,2258.26 838.54,2258.26L477.287,2258.26C445.662,2258.26 419.511,2260.9 398.833,2266.17C378.155,2271.44 361.734,2280.36 349.571,2292.93C337.408,2305.5 328.69,2322.53 323.42,2344.01C318.149,2365.5 315.513,2392.06 315.513,2423.68L315.513,2606.14Z" style="fill:rgb(233,233,233);fill-rule:nonzero;"/>
                <g transform="matrix(1.95913,0,0,2.43268,-42.8977,-2632.61)">
                    <path d="M799.454,2015.98L799.454,2279.98C799.454,2287.32 794.902,2290.98 785.796,2290.98L718.743,2290.98C709.223,2290.98 704.463,2287.32 704.463,2279.98L704.463,1955.98C704.463,1945.98 710.672,1940.98 723.089,1940.98L1056.49,1940.98C1104.09,1940.98 1138.24,1949.65 1158.93,1966.98C1179.63,1984.32 1189.97,2009.98 1189.97,2043.98L1189.97,2080.98C1189.97,2114.98 1179.63,2140.65 1158.93,2157.98C1138.24,2175.32 1104.09,2183.98 1056.49,2183.98L862.719,2183.98C855.815,2183.98 850.219,2178.39 850.219,2171.48C850.219,2159.73 850.219,2142.24 850.219,2130.48C850.219,2123.58 855.815,2117.98 862.719,2117.98C904.583,2117.98 1037.24,2117.98 1037.24,2117.98C1058.35,2117.98 1073.25,2114.32 1081.94,2106.98C1090.64,2099.65 1094.98,2088.48 1094.98,2073.48L1094.98,2054.48C1094.98,2039.48 1090.64,2028.32 1081.94,2020.98C1073.25,2013.65 1058.35,2009.98 1037.24,2009.98L807.526,2009.98C802.145,2009.98 799.454,2011.98 799.454,2015.98Z" style="fill:rgb(233,233,233);fill-rule:nonzero;"/>
                </g>
                <path d="M3254.2,2089.19C3272.03,2089.19 3280.95,2098.11 3280.95,2115.95L3280.95,2231.5C3280.95,2249.34 3272.03,2258.26 3254.2,2258.26L2644.81,2258.26C2621.29,2258.26 2604.67,2264.34 2594.94,2276.51C2585.21,2288.67 2580.34,2305.29 2580.34,2326.38L2580.34,2367.73C2580.34,2413.14 2601.43,2435.85 2643.59,2435.85L3099.72,2435.85C3170.27,2435.85 3223.38,2453.89 3259.06,2489.97C3294.74,2526.06 3312.58,2577.75 3312.58,2645.06L3312.58,2742.37C3312.58,2801.56 3295.14,2849.4 3260.28,2885.89C3225.41,2922.38 3171.08,2940.63 3097.29,2940.63L2423.43,2940.63C2404.78,2940.63 2395.46,2931.71 2395.46,2913.87L2395.46,2798.32C2395.46,2780.48 2404.78,2771.56 2423.43,2771.56L3062.01,2771.56C3085.53,2771.56 3102.15,2765.48 3111.88,2753.31C3121.61,2741.15 3126.48,2724.53 3126.48,2703.44L3126.48,2653.57C3126.48,2608.16 3105.4,2585.46 3063.23,2585.46L2607.1,2585.46C2536.55,2585.46 2483.44,2567.41 2447.76,2531.33C2412.08,2495.24 2394.24,2443.55 2394.24,2376.25L2394.24,2287.45C2394.24,2228.26 2411.68,2180.42 2446.54,2143.93C2481.41,2107.43 2535.74,2089.19 2609.53,2089.19L3254.2,2089.19Z" style="fill:rgb(233,233,233);fill-rule:nonzero;"/>
                <g transform="matrix(1.95913,0,0,2.43268,-42.8977,-2632.61)">
                    <path d="M2157.27,2175.98L2157.27,1926.98C2157.27,1919.65 2161.82,1915.98 2170.93,1915.98L2231.77,1915.98C2240.88,1915.98 2245.43,1919.65 2245.43,1926.98L2245.43,2189.98C2245.43,2207.98 2242.95,2223.4 2237.98,2236.23C2233.01,2249.07 2224.84,2259.57 2213.46,2267.73C2202.07,2275.9 2186.86,2281.82 2167.82,2285.48C2148.78,2289.15 2125.4,2290.98 2097.67,2290.98L1923.83,2290.98C1895.68,2290.98 1872.19,2289.15 1853.36,2285.48C1834.53,2281.82 1819.42,2275.9 1808.04,2267.73C1796.65,2259.57 1788.48,2249.07 1783.51,2236.23C1778.55,2223.4 1776.06,2207.98 1776.06,2189.98L1776.06,2117.98C1776.06,2099.98 1778.55,2084.57 1783.51,2071.73C1788.48,2058.9 1796.65,2048.4 1808.04,2040.23C1819.42,2032.07 1834.53,2026.07 1853.36,2022.23C1872.19,2018.4 1895.68,2016.48 1923.83,2016.48L2094.24,2016.48C2101.14,2016.48 2106.74,2022.08 2106.74,2028.98C2106.74,2039.25 2106.74,2053.72 2106.74,2063.98C2106.74,2070.89 2101.14,2076.48 2094.24,2076.48C2054.32,2076.48 1932.52,2076.48 1932.52,2076.48C1919.27,2076.48 1908.31,2077.4 1899.61,2079.23C1890.92,2081.07 1883.99,2084.07 1878.81,2088.23C1873.64,2092.4 1870.02,2098.07 1867.95,2105.23C1865.88,2112.4 1864.85,2121.15 1864.85,2131.48L1864.85,2175.98C1864.85,2186.65 1865.88,2195.48 1867.95,2202.48C1870.02,2209.48 1873.64,2215.07 1878.81,2219.23C1883.99,2223.4 1890.92,2226.4 1899.61,2228.23C1908.31,2230.07 1919.27,2230.98 1932.52,2230.98L2088.97,2230.98C2102.63,2230.98 2113.81,2230.07 2122.5,2228.23C2131.19,2226.4 2138.12,2223.4 2143.3,2219.23C2148.47,2215.07 2152.1,2209.48 2154.16,2202.48C2156.23,2195.48 2157.27,2186.65 2157.27,2175.98Z" style="fill:rgb(233,233,233);fill-rule:nonzero;"/>
                </g>
            </g>
            <g transform="matrix(0.363636,0,0,0.363636,1562.23,3716.45)">
                <path d="M4350.58,2623.28C4367.6,2613.49 4388.55,2613.51 4405.55,2623.34C4422.55,2633.17 4433.01,2651.32 4433.01,2670.95C4433.01,2688.01 4433.01,2704.66 4433.01,2718.25C4433.01,2737.89 4422.53,2756.05 4405.51,2765.88C4327.52,2810.91 4105.5,2939.09 4027.5,2984.12C4010.48,2993.95 3989.52,2993.95 3972.5,2984.12C3935.49,2962.75 3870.03,2924.96 3833.02,2903.59C3816,2893.77 3805.52,2875.61 3805.52,2855.96C3805.52,2842.2 3805.52,2825.3 3805.52,2807.98C3805.52,2788.33 3816,2770.17 3833.02,2760.35C3850.03,2750.52 3871,2750.52 3888.02,2760.35C3918.27,2777.82 3950.48,2796.41 3972.55,2809.15C3989.54,2818.96 4010.47,2818.98 4027.48,2809.19C4091.31,2772.46 4251.71,2680.17 4350.58,2623.28ZM3734.29,2153.41C3751.31,2143.58 3772.28,2143.58 3789.29,2153.41C3801.21,2160.28 3815.85,2168.74 3830.85,2177.4C3847.86,2187.22 3858.35,2205.38 3858.35,2225.03C3858.35,2244.68 3847.86,2262.84 3830.85,2272.66C3789.92,2296.29 3745.4,2321.99 3727.11,2332.55C3721.81,2335.61 3718.54,2341.27 3718.54,2347.4C3718.54,2347.4 3718.54,2347.4 3718.54,2347.4C3718.54,2347.4 3718.54,2347.4 3718.54,2347.4C3718.53,2347.4 3718.53,2347.4 3718.52,2347.41C3718.52,2347.41 3718.52,2347.41 3718.52,2347.42C3718.52,2350.12 3718.52,2600.44 3718.52,2742.22C3718.52,2761.87 3708.03,2780.03 3691.02,2789.85C3674,2799.68 3653.03,2799.68 3636.02,2789.85C3621.03,2781.2 3606.4,2772.75 3594.49,2765.88C3577.47,2756.05 3566.99,2737.89 3566.99,2718.25L3566.99,2281.75C3566.99,2262.11 3577.47,2243.95 3594.49,2234.12C3631.57,2212.72 3697.21,2174.82 3734.29,2153.41ZM3931.19,2134.95C3914.19,2125.12 3903.72,2106.96 3903.73,2087.32C3903.73,2067.68 3914.22,2049.53 3931.23,2039.71C3946.12,2031.11 3960.66,2022.72 3972.5,2015.88C3989.52,2006.05 4010.48,2006.05 4027.5,2015.88C4105.5,2060.91 4327.52,2189.09 4405.51,2234.12C4422.53,2243.95 4433.01,2262.11 4433.01,2281.75L4433.01,2443.64C4433.01,2463.29 4422.53,2481.45 4405.51,2491.27C4393.57,2498.16 4378.9,2506.64 4363.87,2515.31C4346.86,2525.13 4325.91,2525.14 4308.89,2515.32C4291.88,2505.51 4281.39,2487.37 4281.37,2467.73C4281.34,2432.44 4281.31,2394.79 4281.28,2369.08C4281.26,2349.46 4270.8,2331.34 4253.82,2321.51C4190.08,2284.66 4029.95,2192.06 3931.19,2134.95Z" style="fill:rgb(27,156,133);"/>
                <g transform="matrix(1,0,0,1,1000,500)">
                    <path d="M2958.75,1198.82C2984.28,1184.08 3015.72,1184.08 3041.25,1198.82C3167.4,1271.65 3547.07,1490.85 3673.22,1563.68C3698.75,1578.42 3714.47,1605.66 3714.47,1635.13L3714.47,2364.87C3714.47,2394.34 3698.75,2421.58 3673.22,2436.32C3547.07,2509.15 3167.4,2728.35 3041.25,2801.18C3015.72,2815.92 2984.28,2815.92 2958.75,2801.18C2832.6,2728.35 2452.93,2509.15 2326.78,2436.32C2301.25,2421.58 2285.53,2394.34 2285.53,2364.87L2285.53,1635.13C2285.53,1605.66 2301.25,1578.42 2326.78,1563.68C2452.93,1490.85 2832.6,1271.65 2958.75,1198.82ZM2985,1308.66C2994.28,1303.3 3005.72,1303.3 3015,1308.66C3098.72,1357 3507.49,1593 3591.22,1641.34C3600.5,1646.7 3606.22,1656.6 3606.22,1667.32L3606.22,2332.68C3606.22,2343.4 3600.5,2353.3 3591.22,2358.66C3507.49,2407 3098.72,2643 3015,2691.34C3005.72,2696.7 2994.28,2696.7 2985,2691.34C2901.28,2643 2492.51,2407 2408.78,2358.66C2399.5,2353.3 2393.78,2343.4 2393.78,2332.68L2393.78,1667.32C2393.78,1656.6 2399.5,1646.7 2408.78,1641.34C2492.51,1593 2901.28,1357 2985,1308.66Z" style="fill:rgb(27,156,133);"/>
                </g>
                <g transform="matrix(0.954805,0,0,0.862559,78.1052,169.032)">
                    <path d="M4078.73,2459.94C4096.56,2448.55 4118.51,2448.55 4136.34,2459.94C4175.18,2484.77 4243.97,2528.73 4282.81,2553.55C4300.63,2564.95 4311.61,2586 4311.61,2608.78L4311.61,2796C4311.61,2818.78 4300.63,2839.83 4282.81,2851.22C4243.97,2876.05 4175.18,2920.01 4136.34,2944.83C4118.51,2956.22 4096.56,2956.22 4078.73,2944.83C4039.89,2920.01 3971.1,2876.05 3932.26,2851.22C3914.43,2839.83 3903.46,2818.78 3903.45,2796L3903.45,2608.78C3903.46,2586 3914.43,2564.95 3932.26,2553.55C3971.1,2528.73 4039.89,2484.77 4078.73,2459.94Z" style="fill:rgb(27,156,133);"/>
                </g>
            </g>
        </g>
    </g>
</svg>
